<svg width="51.14" height="86.8" viewBox="0 0 51.14 86.8" xmlns="http://www.w3.org/2000/svg">
  <defs>
    <linearGradient id="pcgrad" gradientTransform="rotate(25)" x1="0%" y1="0%" x2="0%" y2="100%">
      <stop stop-color="#6142a5" offset="0%"/>
      <stop stop-color="#df99d8" offset="100%"/>
    </linearGradient>
  </defs>
  <g transform="translate(-24.43 -6.5996)">
    <path d="m30.5 76.9c-2.2 0-3.4961 1.8585-4 4l-2 8.5c-0.50389 2.1415 1.8 4 4 4h43c2.2 0 4.5039-1.8585 4-4l-2-8.5c-0.50389-2.1415-1.8-4-4-4z" fill="url(#pcgrad)"/>
    <path d="m48 6.5996c-0.2 0.2-0.39961 0.40117-0.59961 0.70117l-22 37c-0.5 0.8-0.60117 1.8992-0.20117 2.6992l8.1016 21.4c0.6 1.5 2.0992 2.4004 3.6992 2.4004h26c1.6 0 2.9992-0.90039 3.6992-2.4004l8.1016-21.4c0.3-0.8 0.29883-1.7992-0.20117-2.6992l-22-37c-0.2-0.3-0.39961-0.50117-0.59961-0.70117v27.883a9.6291 9.6291 0 0 1 7.6074 9.4102 9.6291 9.6291 0 0 1-9.6289 9.6289 9.6291 9.6291 0 0 1-9.6289-9.6289 9.6291 9.6291 0 0 1 7.6504-9.4141z" fill="#333"/>
  </g>
</svg>
